<svg width="78" height="56" viewBox="0 0 78 56" fill="none" xmlns="http://www.w3.org/2000/svg">
<path d="M74.1144 36.7641C74.2792 36.8024 74.4441 36.8209 74.6065 36.8209C75.5841 36.8209 76.4734 36.1551 76.7087 35.171L77.9408 30.0162C78.0738 29.4595 77.981 28.8846 77.6794 28.3972C77.3756 27.9063 76.8973 27.5634 76.3324 27.4318L69.0874 25.7448V21.1209L76.2693 19.3342C76.8319 19.1944 77.3052 18.8445 77.6015 18.349C77.8959 17.8572 77.9798 17.2806 77.8384 16.7256L76.5269 11.5901C76.2355 10.447 75.0608 9.75019 73.9087 10.0363L69.0874 11.2357V6.36535C70.0899 5.76715 70.7631 4.67285 70.7631 3.42395C70.7631 1.53591 69.2254 0 67.3354 0H64.2886C62.3986 0 60.8608 1.53591 60.8608 3.42395C60.8608 4.67285 61.534 5.76715 62.5366 6.36535V12.8652L51.9664 15.4948C51.354 15.6471 50.9814 16.2665 51.1339 16.8781C51.2862 17.4897 51.9056 17.8618 52.5187 17.7097L56.6351 16.6857L62.8137 20.3291L54.6026 22.3718L43.8464 19.8671L48.0836 18.813C48.696 18.6607 49.0687 18.0413 48.9162 17.4297C48.7638 16.818 48.1435 16.4455 47.5314 16.5981L38.9621 18.7299L15.4632 13.2581V6.36535C16.4658 5.76715 17.139 4.67285 17.139 3.42395C17.139 1.53591 15.6013 0 13.7113 0H10.6644C8.77446 0 7.2367 1.53591 7.2367 3.42395C7.2367 4.67285 7.90991 5.76715 8.91248 6.36535V11.7326C8.91202 11.7324 8.91248 11.7326 8.91202 11.7324L3.88545 10.5619C2.72978 10.2932 1.56557 11.0075 1.29135 12.155L0.0591971 17.3098C-0.0737987 17.8665 0.0189785 18.4414 0.320618 18.9288C0.624391 19.4197 1.10275 19.7626 1.66764 19.8942L8.91263 21.5812V26.2051L1.73056 27.9918C1.16795 28.1318 0.694774 28.4816 0.398466 28.9771C0.104138 29.469 0.0201972 30.0454 0.161572 30.6004L1.4731 35.7358C1.7205 36.7055 2.60257 37.3541 3.56751 37.3541C3.74058 37.3541 3.91608 37.3332 4.09127 37.2897L8.91263 36.0903V49.1519H3.84326C2.35456 49.1519 1.14312 50.3619 1.14312 51.8491V53.3028C1.14312 54.7901 2.3544 56 3.84326 56H20.5326C22.0213 56 23.2328 54.7901 23.2328 53.3028V51.8491C23.2328 50.3619 22.0215 49.1519 20.5326 49.1519H15.4634V34.4606L24.4955 32.2137C25.108 32.0614 25.4806 31.4421 25.3281 30.8305C25.1758 30.2187 24.5557 29.8465 23.9433 29.9988L21.4249 30.6253L15.2462 26.9819L23.3974 24.9542L34.1535 27.4589L28.3783 28.8956C27.7659 29.0479 27.3933 29.6672 27.5458 30.2788C27.6981 30.8904 28.3178 31.2623 28.9306 31.1105L39.0379 28.5961L62.5369 34.0678V49.1518H57.4675C55.9788 49.1518 54.7674 50.3617 54.7674 51.8489V53.3027C54.7674 54.7899 55.9787 55.9998 57.4675 55.9998H74.1567C75.6454 55.9998 76.8569 54.7899 76.8569 53.3027V51.8489C76.8569 50.3617 75.6456 49.1518 74.1567 49.1518H69.0874V35.5931L74.1144 36.7641ZM74.3449 12.2803L75.5888 17.1512L72.5532 17.9063L66.3744 14.263L74.3449 12.2803ZM64.8219 12.297V6.84805H66.8024V11.8043L64.8219 12.297ZM64.2887 2.28279H67.3356C67.9657 2.28279 68.4781 2.7947 68.4781 3.4241C68.4781 3.94135 68.1317 4.37855 67.6587 4.51824C67.6526 4.51977 67.6465 4.52053 67.6406 4.5222C67.5895 4.5362 67.54 4.54655 67.4911 4.5537C67.4881 4.55416 67.4852 4.55477 67.4821 4.55507C67.4329 4.56192 67.3842 4.56557 67.3356 4.56557H64.2887C64.2401 4.56557 64.1915 4.56192 64.1422 4.55507C64.1391 4.55477 64.1361 4.55416 64.1332 4.5537C64.0843 4.54655 64.0347 4.5362 63.9837 4.5222C63.9776 4.52053 63.9715 4.51992 63.9656 4.51824C63.4926 4.37855 63.1461 3.94135 63.1461 3.4241C63.1461 2.7947 63.6586 2.28279 64.2887 2.28279ZM59.7964 15.8995L63.2129 15.0496L69.3916 18.6929L65.975 19.5428L59.7964 15.8995ZM66.8024 21.6893V25.2126L64.8219 24.7515V22.182L66.8024 21.6893ZM62.5368 22.7506V24.2195L59.4867 23.5093L62.5368 22.7506ZM10.6647 2.28279H13.7116C14.3417 2.28279 14.8542 2.7947 14.8542 3.4241C14.8542 3.94119 14.5079 4.37855 14.0349 4.51824C14.0288 4.51977 14.0227 4.52053 14.0166 4.5222C13.9656 4.5362 13.916 4.54655 13.8671 4.5537C13.8641 4.55416 13.8612 4.55477 13.8582 4.55507C13.809 4.56192 13.7602 4.56557 13.7116 4.56557H10.6647C10.6161 4.56557 10.5675 4.56192 10.5182 4.55507C10.5151 4.55477 10.5121 4.55416 10.5092 4.5537C10.4603 4.54655 10.4108 4.5362 10.3597 4.5222C10.3537 4.52053 10.3476 4.51992 10.3416 4.51824C9.86859 4.37855 9.52216 3.94135 9.52216 3.4241C9.52216 2.7947 10.0346 2.28279 10.6647 2.28279ZM13.1783 6.84805V12.726L11.1978 12.2649V6.84805H13.1783ZM2.31525 17.7017L3.48372 12.8126L6.5996 13.5381L10.3843 19.5804L10.3148 19.5643C10.3147 19.5643 10.3147 19.5643 10.3145 19.5643L2.31525 17.7017ZM3.65526 35.046L2.41138 30.1752L5.507 29.405L11.6856 33.0484L3.65526 35.046ZM13.1783 35.0293V49.1522H11.1978V35.522L13.1783 35.0293ZM20.5326 51.4346C20.7614 51.4347 20.9476 51.6205 20.9476 51.8491V53.3028C20.9476 53.5314 20.7614 53.7174 20.5326 53.7174H3.84326C3.61444 53.7174 3.42827 53.5314 3.42827 53.3028V51.8491C3.42827 51.6205 3.61444 51.4346 3.84326 51.4346H20.5326ZM18.2636 31.4118L14.847 32.2617L8.66843 28.6184L12.085 27.7685L18.2636 31.4118ZM11.1978 25.6369V22.1135L13.1783 22.5746V25.1441L11.1978 25.6369ZM13.5401 20.3151L9.7554 14.2729L9.79562 14.2823L13.2017 15.0754L16.9864 21.1177L13.5401 20.3151ZM15.4634 24.5757V23.1068L18.5135 23.817L15.4634 24.5757ZM20.1425 21.8526L16.3578 15.8103L23.7056 17.5213L27.4903 23.5636L20.1425 21.8526ZM30.6461 24.2983L26.8614 18.256L30.3079 19.0586L34.0927 25.1009L30.6461 24.2983ZM37.2487 25.8358L33.4638 19.7935L40.8117 21.5045L44.5963 27.5468L37.2487 25.8358ZM47.7523 28.2817L43.9676 22.2394L47.4141 23.042L51.1989 29.0842L47.7523 28.2817ZM54.3547 29.819L50.5699 23.7767L54.352 24.6573C54.352 24.6573 54.352 24.6573 54.3521 24.6573L57.9179 25.4877L61.7027 31.53L54.3547 29.819ZM61.0736 26.2226L64.5203 27.0252L68.3049 33.0674L64.8585 32.2649L61.0736 26.2226ZM66.8024 35.0614V49.1522H64.8219V34.6005L66.8024 35.0614ZM74.1567 51.4346C74.3856 51.4347 74.5717 51.6205 74.5717 51.8491V53.3028C74.5717 53.5314 74.3856 53.7174 74.1567 53.7174H57.4674C57.2386 53.7174 57.0524 53.5314 57.0524 53.3028V51.8491C57.0524 51.6205 57.2386 51.4346 57.4674 51.4346H74.1567ZM67.6764 27.7599L75.6851 29.6248L74.5164 34.5139L71.4609 33.8023L67.6764 27.7599Z" fill="#FFC107" fill-opacity="0.5"/>
</svg>
