<?xml version="1.0" encoding="iso-8859-1"?>
<!-- Generator: Adobe Illustrator 19.0.0, SVG Export Plug-In . SVG Version: 6.00 Build 0)  -->
<svg xmlns="http://www.w3.org/2000/svg" xmlns:xlink="http://www.w3.org/1999/xlink" version="1.1" id="Capa_1" x="0px" y="0px" viewBox="0 0 512.12 512.12" style="enable-background:new 0 0 512.12 512.12;" xml:space="preserve" width="512px" height="512px">
<g transform="translate(0 -1)">
	<g>
		<g>
			<path d="M506.854,236.029c-5.75-7.925-15.316-12.148-25.046-11.059c-9.73,1.09-18.125,7.324-21.98,16.325l-7.498,17.493     c-5.499-88.116-56.39-132.304-79.21-147.79c18.743-18.149,24.594-45.859,14.789-70.036     c-9.806-24.177-33.306-39.983-59.396-39.948c-26.09,0.035-49.548,15.902-59.29,40.105c-9.742,24.203-3.817,51.897,14.974,69.997     c-10.143,6.906-19.493,14.911-27.88,23.867c-8.468-9.045-17.918-17.115-28.177-24.063c18.717-18.184,24.522-45.91,14.67-70.075     C232.958,16.68,209.423,0.915,183.327,1c-26.096,0.086-49.527,16.005-59.22,40.234c-9.693,24.229-3.707,51.917,15.13,69.978     c-23.071,15.745-73.849,60.253-78.955,148.715l-7.983-18.628c-3.853-9.004-12.247-15.242-21.98-16.334     c-9.732-1.092-19.3,3.132-25.052,11.058c-5.752,7.926-6.799,18.333-2.743,27.246l33.442,73.571     c4.515,9.957,10.792,19.017,18.529,26.742l52.595,52.595c-2.965,3.139-4.62,7.291-4.629,11.609v68.267     c0.009,9.422,7.645,17.057,17.067,17.067h93.867c9.422-0.009,17.057-7.645,17.067-17.067V436.32h51.2v59.733     c0.009,9.422,7.645,17.057,17.067,17.067h93.867c9.422-0.009,17.057-7.645,17.067-17.067v-68.267     c-0.009-4.318-1.664-8.47-4.629-11.609l52.595-52.595c7.737-7.725,14.014-16.784,18.529-26.742l33.442-73.571     C513.653,254.357,512.604,243.953,506.854,236.029z M281.661,65.12c0-25.921,21.013-46.933,46.933-46.933     c25.921,0,46.933,21.013,46.933,46.933s-21.013,46.933-46.933,46.933C302.685,112.024,281.69,91.028,281.661,65.12z      M299.128,121.874c9.093,4.759,19.203,7.245,29.466,7.245c10.393,0.004,20.628-2.541,29.81-7.411     c16.272,9.35,80.22,53.014,77.273,159.46c-10.528-4.585-22.53-4.36-32.879,0.616c-0.305-33.04-6.899-65.72-19.428-96.294     c-1.198-2.807-3.803-4.761-6.834-5.124c-3.03-0.363-6.024,0.921-7.85,3.366c-1.826,2.445-2.207,5.68-1,8.483     c0.24,0.562,23.332,55.357,16.912,102.805c-11.605,9.719-24.675,17.542-38.724,23.179c-1.697,0.566-3.313,1.365-4.951,2.101     c-3.28-49.299-23.858-76.135-36.425-88.093c11.143-15.411,14.258-35.216,8.384-53.303c-5.875-18.087-20.033-32.282-38.105-38.204     C282.188,133.561,290.353,127.249,299.128,121.874z M256.061,154.72c23.564,0,42.667,19.102,42.667,42.667     s-19.103,42.667-42.667,42.667s-42.667-19.103-42.667-42.667C213.422,173.834,232.508,154.747,256.061,154.72z M136.594,65.12     c0-25.921,21.013-46.933,46.933-46.933s46.933,21.013,46.933,46.933s-21.013,46.933-46.933,46.933     C157.619,112.024,136.623,91.028,136.594,65.12z M154.018,121.854c18.567,9.73,40.735,9.686,59.263-0.118     c8.804,5.37,16.997,11.684,24.433,18.829c-18.176,5.829-32.459,20.013-38.414,38.148s-2.86,38.026,8.324,53.494     c-12.567,11.957-33.144,38.795-36.425,88.094c-1.639-0.736-3.257-1.535-4.955-2.102c-14.047-5.638-27.115-13.46-38.72-23.179     c-6.398-47.342,16.676-102.247,16.916-102.809c1.834-4.327-0.176-9.323-4.496-11.174s-9.323,0.14-11.191,4.453     c-12.529,30.575-19.123,63.255-19.428,96.296c-10.18-4.86-21.959-5.105-32.332-0.672     C74.081,175.235,137.36,131.495,154.018,121.854z M66.561,351.515c-6.287-6.28-11.389-13.642-15.063-21.733l-33.442-73.571     c-1.459-3.135-1.191-6.802,0.708-9.692h0c1.843-2.923,5.069-4.683,8.525-4.65c4.059-0.003,7.727,2.417,9.321,6.15l19.083,44.525     c5.075,11.874,12.381,22.665,21.521,31.787l38.983,38.983c2.155,2.156,5.297,2.997,8.242,2.208     c2.944-0.789,5.244-3.089,6.033-6.033c0.789-2.945-0.053-6.086-2.208-8.242l-38.983-38.983     c-3.917-3.914-7.44-8.205-10.517-12.809c8.188-6.321,19.661-6.133,27.638,0.454c2.45,2.061,4.849,4.017,7.218,5.911     c0.363,0.348,0.758,0.662,1.178,0.939c13.712,11.699,29.275,21.036,46.05,27.63c8.171,2.971,15.3,8.257,20.517,15.212     c9.95,12.957,15.223,28.899,14.963,45.233v15.883h-70.562L66.561,351.515z M119.527,496.053v-68.267h93.867l0.012,68.267H119.527     z M284.034,419.253h-55.947c-3.024-5.262-8.624-8.514-14.693-8.533v-15.883c0-2.704-0.12-5.386-0.338-8.045     c0.171-0.544,0.284-1.104,0.338-1.672c0-0.512,0.271-51.471,23.658-79.913c1.943-2.354,2.481-5.567,1.41-8.426     c-1.071-2.859-3.587-4.928-6.598-5.426c-3.012-0.499-6.06,0.649-7.995,3.01c-11.808,15.697-19.761,33.949-23.219,53.285     c-1.792-3.03-3.784-5.939-5.96-8.706c-2.105-2.623-4.384-5.1-6.823-7.415c0.645-50.714,21.045-76.883,31.616-87.022     c21.486,16.817,51.67,16.817,73.156,0c10.571,10.139,30.971,36.308,31.616,87.022c-2.439,2.315-4.719,4.793-6.823,7.415     c-2.177,2.767-4.168,5.675-5.96,8.706c-3.458-19.336-11.411-37.588-23.219-53.285c-2.996-3.631-8.367-4.15-12.003-1.159     c-3.636,2.99-4.164,8.36-1.18,12.001c23.313,28.35,23.659,79.408,23.659,79.921c0.055,0.564,0.168,1.121,0.338,1.661     c-0.218,2.659-0.338,5.343-0.338,8.047v15.884C292.658,410.739,287.058,413.991,284.034,419.253z M392.594,496.053h-93.867     v-68.267h93.867V496.053z M494.064,256.211l-33.442,73.571c-3.673,8.091-8.776,15.453-15.063,21.733l-59.204,59.204h-70.562     v-15.883c-0.261-16.334,5.013-32.276,14.963-45.233c5.216-6.954,12.344-12.24,20.513-15.212     c16.779-6.593,32.345-15.932,46.059-27.634c0.416-0.275,0.807-0.586,1.168-0.931c2.371-1.894,4.771-3.852,7.222-5.915     c7.973-6.625,19.47-6.846,27.692-0.533c-3.09,4.634-6.631,8.951-10.571,12.887l-38.983,38.983     c-2.156,2.155-2.997,5.297-2.208,8.242c0.789,2.944,3.089,5.244,6.033,6.033c2.944,0.789,6.086-0.053,8.242-2.208l38.983-38.983     c9.14-9.122,16.446-19.913,21.521-31.787l19.087-44.529c1.593-3.731,5.26-6.15,9.317-6.146c3.448,0.001,6.66,1.754,8.527,4.653     S495.491,253.072,494.064,256.211z" fill="#FFFFFF"/>
			<path d="M196.327,453.386h-8.533c-4.713,0-8.533,3.821-8.533,8.533s3.82,8.533,8.533,8.533h8.533c4.713,0,8.533-3.82,8.533-8.533     S201.04,453.386,196.327,453.386z" fill="#FFFFFF"/>
			<path d="M315.794,470.453h8.533c4.713,0,8.533-3.82,8.533-8.533s-3.82-8.533-8.533-8.533h-8.533     c-4.713,0-8.533,3.821-8.533,8.533S311.081,470.453,315.794,470.453z" fill="#FFFFFF"/>
		</g>
	</g>
</g>
<g>
</g>
<g>
</g>
<g>
</g>
<g>
</g>
<g>
</g>
<g>
</g>
<g>
</g>
<g>
</g>
<g>
</g>
<g>
</g>
<g>
</g>
<g>
</g>
<g>
</g>
<g>
</g>
<g>
</g>
</svg>
