<svg width="105" height="105" viewBox="0 0 105 105" fill="none" xmlns="http://www.w3.org/2000/svg">
<path d="M52.5 105C81.4949 105 105 81.4949 105 52.5C105 23.505 81.4949 0 52.5 0C23.505 0 0 23.505 0 52.5C0 81.4949 23.505 105 52.5 105Z" fill="#00C7FF"/>
<path d="M40.7343 79.4454C63.3694 77.2156 81.7813 60.6115 86.7185 38.8849L62.1329 14.2993L51.2632 10.0788L41.1838 0L0 38.7112L40.7343 79.4454Z" transform="translate(16.9749 25.2979)" fill="#0093C4"/>
<path d="M36.0156 28.5945C36.0197 28.4534 36.0263 28.3131 36.0263 28.1712C36.0263 20.3671 29.7 14.0409 21.896 14.0409C20.0482 14.0409 18.285 14.3994 16.6671 15.0443C15.6267 8.3676 11.2924 2.78394 5.37982 0L0 27.3638L5.37982 46.4949H35.957C40.9008 46.4949 44.9086 42.4871 44.9086 37.5432C44.9086 32.6191 40.9322 28.6262 36.0156 28.5945Z" transform="translate(47.1201 21.2222)" fill="#D1E8FF"/>
<path d="M30.9961 0C19.9164 0 10.9346 8.98181 10.9346 20.0616C10.9346 20.7078 10.968 21.3458 11.0277 21.9762C4.76479 23.0596 0 28.5157 0 35.0881C0 42.4395 5.95957 48.3991 13.311 48.3991H39.5288V1.90415C36.9391 0.684962 34.0481 0 30.9961 0Z" transform="translate(12.9712 19.3181)" fill="#F5F5FF"/>
<path d="M3.09073 0L0 20.351L3.09073 45.0406H9.33433V17.2266H15.4342L3.09073 0Z" transform="translate(49.4092 40.6416)" fill="#FF0099"/>
<path d="M0 17.2266H6.09984V45.0406H12.3434V0L0 17.2266Z" transform="translate(40.1567 40.6416)" fill="#FF68A5"/>
</svg>
