<?xml version="1.0" encoding="utf-8"?>
<!-- Generator: Adobe Illustrator 21.1.0, SVG Export Plug-In . SVG Version: 6.00 Build 0)  -->
<svg version="1.1" id="Layer_1" xmlns="http://www.w3.org/2000/svg" xmlns:xlink="http://www.w3.org/1999/xlink" x="0px" y="0px"
	 viewBox="0 0 1280 249" style="enable-background:new 0 0 1280 249;" xml:space="preserve">
<style type="text/css">
	.st0{fill:#384E75;}
	.st1{fill:#81DBD3;}
	.st2{fill:url(#SVGID_1_);}
	.st3{fill:#FFFFFF;}
	.st4{fill:url(#SVGID_2_);}
</style>
<g>
	<g>
		<g>
			<path class="st3" d="M330.5,74.3c6.1,2.8,11.5,7.3,16.1,13.4l-13.2,12.9c-2.4-5-5.6-8.7-9.6-11.2c-4-2.5-9-3.7-15.2-3.7
				c-5.6,0-9.9,1-12.9,3.1c-3,2.1-4.5,4.9-4.5,8.3c0,3.2,1.5,5.7,4.6,7.5c3.1,1.9,8.6,3.5,16.6,4.9c8.4,1.6,15,3.5,19.9,5.8
				c4.9,2.3,8.5,5.2,10.8,8.7c2.3,3.5,3.4,7.8,3.4,13c0,5.7-1.6,10.6-4.8,14.7c-3.2,4.1-7.7,7.3-13.4,9.5
				c-5.7,2.2-12.2,3.3-19.6,3.3c-10.1,0-18.4-1.4-24.8-4.2c-6.5-2.8-11.7-7.1-15.7-12.9l11.4-13.6c3.4,5.7,7.4,9.6,11.8,11.8
				c4.5,2.2,10,3.3,16.6,3.3c5.9,0,10.5-0.9,13.6-2.8c3.1-1.9,4.7-4.5,4.7-7.9c0-2.5-1.5-4.6-4.4-6.3s-8.1-3.2-15.7-4.7
				c-8.6-1.8-15.5-3.9-20.7-6.3c-5.2-2.4-8.9-5.4-11.2-8.9c-2.3-3.5-3.5-7.9-3.5-13.1c0-5.5,1.5-10.4,4.5-14.8
				c3-4.4,7.3-7.9,13-10.4c5.7-2.5,12.4-3.8,20.1-3.8C317,70,324.3,71.5,330.5,74.3z"/>
			<path class="st3" d="M426.8,93.7v69.6h-17l-0.7-12c-4.5,8.9-12.6,13.4-24.4,13.4c-7.5,0-13.5-2-17.9-6.1
				c-4.4-4-6.6-10.3-6.6-18.9V93.7h19.1v41.2c0,5.4,1,9.2,3.1,11.4c2,2.2,5.1,3.3,9,3.3c4.8,0,8.7-1.6,11.8-4.7
				c3-3.1,4.5-7.8,4.5-14V93.7H426.8z"/>
			<path class="st3" d="M508.2,101.8c5.3,6.4,7.9,15.2,7.9,26.5c0,11.4-2.6,20.3-7.9,26.7c-5.3,6.4-12.6,9.6-21.9,9.6
				c-5,0-9.4-1.1-13.1-3.4c-3.7-2.3-6.6-5.4-8.8-9.4v40.7h-19.1V93.7h16.8l0.7,13.8c2-4.6,5.1-8.3,9.1-11.1c4-2.7,8.8-4.1,14.3-4.1
				C495.6,92.3,502.9,95.5,508.2,101.8z M492.8,144.5c2.9-3.7,4.3-9,4.3-16c0-7-1.4-12.3-4.3-16c-2.9-3.7-6.9-5.6-12.1-5.6
				c-4.6,0-8.4,1.6-11.3,4.8c-2.9,3.2-4.5,7.8-4.9,13.7v6.1c0.4,5.9,2,10.4,4.9,13.6c2.9,3.3,6.6,4.9,11.3,4.9
				C485.8,150.1,489.9,148.2,492.8,144.5z"/>
			<path class="st3" d="M594.4,101.8c5.3,6.4,7.9,15.2,7.9,26.5c0,11.4-2.6,20.3-7.9,26.7s-12.6,9.6-21.9,9.6c-5,0-9.4-1.1-13.1-3.4
				c-3.7-2.3-6.6-5.4-8.8-9.4v40.7h-19.1V93.7h16.8l0.7,13.8c2-4.6,5.1-8.3,9.1-11.1c4-2.7,8.8-4.1,14.3-4.1
				C581.8,92.3,589.1,95.5,594.4,101.8z M578.9,144.5c2.9-3.7,4.3-9,4.3-16c0-7-1.4-12.3-4.3-16c-2.9-3.7-6.9-5.6-12.1-5.6
				c-4.6,0-8.4,1.6-11.3,4.8c-2.9,3.2-4.5,7.8-4.9,13.7v6.1c0.4,5.9,2,10.4,4.9,13.6c2.9,3.3,6.6,4.9,11.3,4.9
				C572,150.1,576,148.2,578.9,144.5z"/>
			<path class="st3" d="M636.5,141.2c0,3.3,0.5,5.7,1.5,7c1,1.3,2.8,2,5.4,2c1.6,0,2.9-0.1,4.1-0.3c1.2-0.2,2.5-0.6,4.1-1.2
				l-1.7,13.2c-1.5,0.9-3.4,1.7-5.8,2.2c-2.4,0.5-4.8,0.8-7.1,0.8c-6.8,0-11.7-1.7-14.8-4.9c-3.1-3.3-4.7-8.6-4.7-15.8V63.2h19.1
				V141.2z"/>
			<path class="st3" d="M696.5,167.6c-3.4,9.5-7.4,16.1-11.9,19.9s-10.5,5.7-18,5.7c-7.5,0-13.4-1.8-17.7-5.4l4.7-13.5
				c1.5,1.7,3.1,2.8,4.9,3.4c1.8,0.6,4.1,0.9,6.7,0.9c2.9,0,5.2-0.6,7-1.8c1.8-1.2,3.2-3.4,4.5-6.5l2.5-6l-7.7-18.1l-21.3-52.5h21.2
				l13.1,41.8l3.8,13.9l4.2-14.8l12.8-40.9h19.4L696.5,167.6z"/>
			<path class="st3" d="M800.4,157.9c-6.9,4.5-15.1,6.7-24.6,6.7c-9,0-16.8-1.9-23.5-5.7c-6.7-3.8-11.8-9.3-15.4-16.4
				c-3.6-7.1-5.4-15.5-5.4-25.3c0-9.7,1.8-18.2,5.4-25.3c3.6-7.1,8.7-12.5,15.3-16.4c6.6-3.8,14.4-5.7,23.3-5.7c9.6,0,17.7,2,24.3,6
				c6.6,4,11.2,9.9,13.7,17.8l-17.4,7.4c-1.5-5.5-3.8-9.4-7-11.8c-3.2-2.4-7.4-3.6-12.8-3.6c-7.8,0-13.9,2.7-18.3,8.2
				c-4.4,5.5-6.6,13.3-6.6,23.4c0,10.1,2.1,17.9,6.4,23.4c4.3,5.5,10.3,8.2,18.1,8.2c11.2,0,18.3-5.4,21.2-16.3l17.7,5.3
				C812,146.8,807.2,153.4,800.4,157.9z"/>
			<path class="st3" d="M887.4,98.8c4.6,4.4,6.9,10.6,6.9,18.8v45.7h-19.1v-40.1c0-10.6-4.1-15.9-12.4-15.9c-4.5,0-8.2,1.6-11.3,4.7
				c-3.1,3.2-4.7,8-4.7,14.5v36.7h-19.1V63.2h19.1v42.3c2.1-4.5,5.1-7.8,9-10c3.8-2.2,8.3-3.3,13.4-3.3
				C876.8,92.3,882.8,94.5,887.4,98.8z"/>
			<path class="st3" d="M980.9,151.2l-1.4,11.6c-2.6,1.3-5.6,2-9,2c-8.9,0-14.2-3.5-16-10.4c-2,3.4-5.2,6-9.5,7.8
				c-4.3,1.8-9.3,2.6-15.2,2.6c-6.8,0-12.1-1.5-15.9-4.6c-3.8-3.1-5.7-7.5-5.7-13.2c0-11.3,9.1-18.6,27.1-22l16.7-3.2v-3.3
				c0-3.7-1-6.7-3.1-8.8c-2.1-2.2-5-3.3-8.7-3.3c-4.3,0-7.8,0.9-10.4,2.8c-2.7,1.9-4.5,4.9-5.6,9l-15.2-6.4c1.5-6,4.8-10.8,10-14.2
				c5.2-3.4,12-5.2,20.3-5.2c9.9,0,17.7,2.2,23.2,6.5c5.6,4.3,8.4,10.7,8.4,19.1v28.5c0,1.9,0.4,3.2,1.3,4c0.8,0.8,2.1,1.3,3.9,1.3
				C978.1,151.7,979.7,151.6,980.9,151.2z M947,148.7c3.4-2,5.1-4.7,5.1-8.1v-7.2l-14.9,3.3c-3.2,0.7-5.5,1.7-7,3
				c-1.5,1.3-2.3,3-2.3,5.2c0,2.2,0.7,3.9,2.1,5.1c1.4,1.2,3.3,1.7,5.8,1.7C939.9,151.7,943.6,150.7,947,148.7z"/>
			<path class="st3" d="M1050.7,98.8c4.6,4.4,6.9,10.6,6.9,18.8v45.7h-19.1v-40.1c0-10.6-4.1-15.9-12.4-15.9
				c-4.5,0-8.2,1.6-11.3,4.7c-3.1,3.2-4.7,8-4.7,14.5v36.7H991V93.7h17.1l0.6,12.4c2.3-4.5,5.5-8,9.6-10.3c4.1-2.3,8.8-3.5,14.2-3.5
				C1040,92.3,1046.1,94.5,1050.7,98.8z"/>
			<path class="st3" d="M1135.7,155.2c4.1,3.3,6.2,8.1,6.2,14.3c0,7.4-3.4,13.2-10.3,17.4c-6.9,4.2-15.9,6.3-27.1,6.3
				c-11.6,0-20.2-1.5-25.8-4.6c-5.6-3.1-8.4-7.2-8.4-12.5c0-3.2,1.1-5.9,3.2-8.2c2.1-2.3,5.3-4,9.5-5c-3.2-1.3-5.7-3.1-7.5-5.5
				c-1.9-2.4-2.8-5.2-2.8-8.4c0-3.3,1-6.2,2.9-8.6c1.9-2.4,4.6-4.2,8.1-5.4c-3.5-2-6.2-4.7-8.1-7.9c-1.9-3.2-2.8-6.9-2.8-11.1
				c0-7.3,2.9-13.1,8.6-17.3c5.7-4.2,13.5-6.3,23.3-6.3c5,0,9.7,0.6,14.1,1.8c1.2-5.5,3.5-9.8,7-12.9c3.5-3.1,8.2-4.5,14.1-4.1
				l2.5,13.6c-0.7-0.1-1.6-0.1-2.9-0.1c-3.4,0-6.3,0.6-8.6,1.8c-2.3,1.2-3.9,2.8-4.8,4.9c3.4,2,6.1,4.6,7.9,7.8
				c1.8,3.2,2.7,6.8,2.7,10.9c0,7.2-2.9,13-8.6,17.2c-5.7,4.2-13.5,6.3-23.5,6.3c-4.5,0-8.7-0.4-12.5-1.3c-3.6,0.9-5.4,3-5.4,6.3
				c0,1.9,0.7,3.3,2.1,4.2c1.4,1,3.3,1.5,5.8,1.5h23.5C1125.7,150.2,1131.6,151.9,1135.7,155.2z M1121,177.7
				c3.5-1.6,5.3-3.7,5.3-6.2c0-1.9-0.8-3.4-2.4-4.4c-1.6-1-4.3-1.5-8-1.5H1097c-7.7,0-11.6,2.1-11.6,6.3c0,2.6,1.7,4.6,5.2,6.1
				c3.4,1.4,8.6,2.2,15.5,2.2C1112.5,180.1,1117.5,179.3,1121,177.7z M1095.5,107.5c-2.4,2.1-3.5,4.9-3.5,8.4c0,3.5,1.2,6.4,3.5,8.5
				c2.4,2.1,5.4,3.2,9.1,3.2c3.8,0,6.9-1.1,9.3-3.2c2.4-2.1,3.5-5,3.5-8.5c0-3.4-1.2-6.2-3.5-8.4c-2.4-2.1-5.5-3.2-9.3-3.2
				C1100.9,104.3,1097.9,105.3,1095.5,107.5z"/>
			<path class="st3" d="M1216.8,135.7h-49.3c2,9.8,7.7,14.7,17.4,14.7c4,0,7.3-0.7,9.9-2.2c2.6-1.5,4.4-3.6,5.4-6.4l15.6,5.7
				c-2.2,5.6-6,9.8-11.2,12.7c-5.2,2.9-11.8,4.4-19.7,4.4c-11.5,0-20.4-3.2-26.7-9.5c-6.3-6.4-9.5-15.2-9.5-26.7
				c0-11.4,3.1-20.3,9.2-26.7c6.1-6.4,14.8-9.5,25.9-9.5c10.8,0,19,3.1,24.8,9.3c5.8,6.2,8.7,15.1,8.7,26.6
				C1217.4,130.8,1217.2,133.3,1216.8,135.7z M1172.6,110.4c-2.7,2.7-4.5,6.7-5.2,12h32.4c-0.7-5.2-2.5-9.2-5.3-11.9
				c-2.8-2.7-6.4-4.1-10.9-4.1C1179,106.4,1175.3,107.7,1172.6,110.4z"/>
		</g>
	</g>
	<path class="st1" d="M124.5,80l7-4.1l15.3-8.8l3.5-2l0,0l11.1-6.4c6.7-3.9,15.1-3.9,21.8,0L220.1,80c6.7,3.9,10.9,11.1,10.9,18.9
		v42.6c0,7.8-4.2,15-10.9,18.9l-36.9,21.3c-3.4,1.9-7.1,2.9-10.9,2.9s-7.5-1-10.9-2.9l-8.7-5l15.3-8.8l1.1,0.6c2,1.2,4.5,1.2,6.5,0
		l36.9-21.3c2-1.2,3.2-3.3,3.2-5.6V98.9c0-2.3-1.2-4.5-3.2-5.6L175.5,72c-1-0.6-2.1-0.9-3.2-0.9s-2.2,0.3-3.2,0.9l-7,4l-15.3,8.8
		l-14.6,8.4c-2,1.2-3.2,3.3-3.2,5.6v42.6c0,2.3,1.2,4.5,3.2,5.6l8.7,5l-15.3,8.8l-1.1-0.6c-6.7-3.9-10.9-11.1-10.9-18.9V98.9
		C113.6,91.1,117.8,83.9,124.5,80z"/>
	<path class="st3" d="M73.5,80l36.9-21.3c6.7-3.9,15.1-3.9,21.8,0l8.7,5l-15.3,8.8l-1.1-0.6c-1-0.6-2.1-0.9-3.2-0.9
		c-1.1,0-2.2,0.3-3.2,0.9L81.2,93.3c-2,1.2-3.2,3.3-3.2,5.6v42.6c0,2.3,1.2,4.5,3.2,5.6l36.9,21.3c1.9,1.1,4.1,1.1,6.1,0.2l0,0
		l5-2.9l2.4-1.4l15.3-8.8l14.6-8.4c2-1.2,3.2-3.3,3.2-5.6V98.9c0-2.3-1.2-4.5-3.2-5.6l-8.7-5l15.3-8.8l1.1,0.6
		c6.7,3.9,10.9,11.1,10.9,18.9v42.6c0,7.8-4.2,15-10.9,18.9l-2.6,1.5l0,0l-4.4,2.5l-15.3,8.8l-6.5,3.8l0,0l-8.1,4.7
		c-3.4,1.9-7.1,2.9-10.9,2.9c-3.8,0-7.5-1-10.9-2.9l-36.9-21.3c-6.7-3.9-10.9-11.1-10.9-18.9V98.9C62.6,91.1,66.8,83.9,73.5,80z"/>
</g>
</svg>
