<svg width="33" height="33" viewBox="0 0 33 33" fill="none" xmlns="http://www.w3.org/2000/svg">
<g filter="url(#filter0_d)">
<path d="M2.5 0C1.02793 0 0 1.18607 0 2.88462V3.36537C0 5.70191 1.14502 7.21154 2.91665 7.21154C4.68833 7.21154 5.8333 5.70191 5.8333 3.36537V2.88462C5.8333 1.18607 4.80498 0 3.3333 0H2.5ZM5 2.88462V3.36537C5 4.23267 4.79668 6.24999 2.91665 6.24999C1.03623 6.24999 0.833301 4.23267 0.833301 3.36537V2.88462C0.833301 1.71635 1.48745 0.961559 2.49995 0.961559H3.33335C4.34541 0.961559 5 1.71635 5 2.88462Z" transform="translate(14.4166 14.4231)" fill="#2D918E"/>
<path d="M0.418751 0H0.41416C0.18457 0 0 0.215388 0 0.48075C0 0.746113 0.188331 0.9615 0.418751 0.9615C0.648731 0.9615 0.835401 0.746113 0.835401 0.48075C0.835401 0.215388 0.648731 0 0.418751 0Z" transform="translate(16.0938 17.3076)" fill="#2D918E"/>
<path d="M0.384575 10.0947C0.616655 10.112 0.814555 9.91683 0.832084 9.65237L1.24835 3.41005C1.34083 2.26583 2.67378 0.961502 3.75 0.961502H4.58331C5.67999 0.961502 7.01246 2.26054 7.08458 3.40238L7.50122 9.65237C7.51788 9.90427 7.70039 10.0961 7.91621 10.0961C7.92662 10.0961 7.9379 10.0957 7.94874 10.0946C8.17789 10.0745 8.34956 9.84319 8.33208 9.57828L7.91543 3.33021C7.80415 1.56829 5.95914 0 4.58331 0H3.74996C2.23331 0 0.552055 1.67595 0.417875 3.32835L0.00122516 9.57834C-0.0162553 9.84325 0.155376 10.0745 0.384575 10.0947Z" transform="translate(18.1667 0.961426)" fill="#2D918E"/>
<path d="M2.47832 0.328858C2.42163 0.13223 2.2625 0 2.0833 0C1.90371 0 1.74453 0.13223 1.68789 0.328858C1.37495 1.41301 0.45288 1.44186 0.41665 1.44231C0.18623 1.44231 0 1.6577 0 1.92306V3.84612C0 5.45187 0.950831 7.69229 2.5 7.69229C4.04873 7.69229 5 5.45193 5 3.84612V1.92306C5 1.6577 4.81333 1.44231 4.58335 1.44231C4.56538 1.44231 2.79165 1.412 2.47832 0.328858ZM4.16665 3.84618C4.16665 5.15293 3.42334 6.73079 2.5 6.73079C1.57666 6.73079 0.83335 5.15293 0.83335 3.84618V2.34522C1.24126 2.23851 1.74502 1.97022 2.11504 1.42405C2.69839 2.0976 3.62964 2.3082 4.1667 2.37406V3.84618H4.16665Z" transform="translate(19.8334 3.84619)" fill="#2D918E"/>
<path d="M0.416651 0.961502H0.8333C1.06328 0.961502 1.24995 0.746113 1.24995 0.480751C1.24995 0.215388 1.06328 0 0.8333 0H0.416651C0.186231 0 9.59703e-09 0.215388 9.59703e-09 0.480751C-4.88185e-05 0.746113 0.186231 0.961502 0.416651 0.961502Z" transform="translate(11.9167 3.84619)" fill="#2D918E"/>
<path d="M0.418751 0.9615C0.648731 0.9615 0.835401 0.746113 0.835401 0.48075C0.835401 0.215388 0.648731 0 0.418751 0H0.414161C0.184572 0 0 0.215388 0 0.48075C0 0.746113 0.188331 0.9615 0.418751 0.9615Z" transform="translate(17.7604 17.3076)" fill="#2D918E"/>
<path d="M0.432519 5.65047C0.512109 6.5745 0.860449 7.38794 0.8771 7.42643C1.25459 8.29806 1.82583 9.61535 3.75 9.61535C5.67417 9.61535 6.24502 8.29806 6.62251 7.42643C6.63916 7.38794 6.9875 6.5745 7.06753 5.65047C7.32505 5.48703 7.50005 5.17017 7.50005 4.80768V3.84612C7.50005 3.49084 7.33213 3.18023 7.0834 3.01392V2.88462C7.0834 1.29374 5.96172 0 4.5834 0H2.91675C1.53799 0 0.416748 1.29374 0.416748 2.88462V3.01392C0.16748 3.18023 0 3.49084 0 3.84612V4.80768C0 5.17017 0.175 5.48697 0.432519 5.65047ZM0.833349 3.84612C1.06333 3.84612 1.25 3.63073 1.25 3.36537V2.88462C1.25 1.82401 1.99751 0.961558 2.91665 0.961558H4.5833C5.50249 0.961558 6.24995 1.82407 6.24995 2.88462V3.36537C6.24995 3.63073 6.43618 3.84612 6.6666 3.84612V4.80768C6.43618 4.80768 6.24995 5.02307 6.24995 5.28843C6.24995 6.12018 5.88081 6.98844 5.87705 6.99661C5.44331 7.99755 5.06079 8.6538 3.74995 8.6538C2.43872 8.6538 2.0562 7.99755 1.62285 6.99706C1.6187 6.98838 1.24995 6.12012 1.24995 5.28843C1.24995 5.02307 1.06328 4.80768 0.8333 4.80768V3.84612H0.833349Z" transform="translate(7.75)" fill="#2D918E"/>
<path d="M5.41665 5.67391e-05C5.33413 5.67391e-05 5.25371 0.028397 5.1854 0.0808498L4.16665 0.864485L3.14746 0.080793C3.07915 0.0283966 2.99873 0 2.91665 0C0.50625 0 0 1.30721 0 2.40387C0 2.66923 0.186231 2.88462 0.416651 2.88462C0.646631 2.88462 0.833301 2.66923 0.833301 2.40387C0.833301 2.01732 0.833301 1.00387 2.79204 0.962517L3.93535 1.84232C4.07534 1.94999 4.25742 1.94999 4.39741 1.84232L5.54116 0.962517C7.4999 1.00387 7.4999 2.01732 7.4999 2.40387C7.4999 2.66923 7.68613 2.88462 7.91655 2.88462C8.14653 2.88462 8.3332 2.66923 8.3332 2.40387C8.3333 1.30726 7.82705 5.67391e-05 5.41665 5.67391e-05Z" transform="translate(13.1667 22.1152)" fill="#2D918E"/>
<path d="M0.444142 0H0.442482C0.212892 0 0.0266625 0.213923 0.0258325 0.478835L2.77648e-06 8.17113C-0.000827302 8.43649 0.184573 8.65284 0.414993 8.65385H0.416653C0.646242 8.65385 0.832472 8.43993 0.833303 8.17502L0.859134 0.482722C0.859964 0.217304 0.674562 0.000957783 0.444142 0Z" transform="translate(25.6667 16.3462)" fill="#2D918E"/>
<path d="M0.41665 0.961502H0.833301C1.06328 0.961502 1.24995 0.746113 1.24995 0.480751C1.24995 0.215388 1.06328 0 0.833301 0H0.41665C0.18623 0 0 0.215388 0 0.480751C0 0.746113 0.18623 0.961502 0.41665 0.961502Z" transform="translate(9.83337 3.84619)" fill="#2D918E"/>
<path d="M0.825245 2.97316L1.17398 0.965478C3.27774 1.0203 4.7919 1.62511 5.25606 2.60875C5.36563 2.84194 5.61773 2.92797 5.82105 2.80104C6.02315 2.67411 6.09771 2.38226 5.9877 2.14913C5.33394 0.762597 3.51309 8.8356e-05 0.860206 8.8356e-05C0.653126 -0.00424984 0.466017 0.151531 0.424807 0.386132L0.00815585 2.78374C-0.0368637 3.04432 0.108986 3.29768 0.334816 3.34962C0.362746 3.35633 0.389797 3.35926 0.417336 3.35926C0.611916 3.3592 0.785255 3.20151 0.825245 2.97316Z" transform="translate(12.7498 10.583)" fill="#2D918E"/>
<path d="M8.14492 1.43701C7.32827 0.496639 6.10117 0 4.59575 0C4.35493 0.00529598 4.16782 0.210093 4.1666 0.479343C4.16616 0.577431 4.13701 2.87887 2.49995 2.87887C0.862451 2.87887 0.833692 0.577881 0.833301 0.479849C0.832862 0.214938 0.64624 0.000507213 0.41665 0.000507213C0.18623 0.000507213 0 0.215389 0 0.481258C0 1.55629 0.45 3.51445 2.08335 3.80144V6.24424C2.08335 6.5096 2.26958 6.72499 2.5 6.72499C2.72998 6.72499 2.91665 6.5096 2.91665 6.24424V3.80093C4.3229 3.55332 4.85249 2.0687 4.97163 0.973503C6.07705 1.04511 6.96494 1.43651 7.55581 2.11771C8.05747 2.69515 8.3333 3.47732 8.3333 4.32107V12.0134C8.3333 12.2787 8.51953 12.4941 8.74995 12.4941C8.97993 12.4941 9.1666 12.2787 9.1666 12.0134V4.32112C9.1666 3.22018 8.80371 2.19614 8.14492 1.43701Z" transform="translate(19.8334 11.5442)" fill="#2D918E"/>
<path d="M0.83335 0C0.373779 0 0 0.431228 0 0.961558C0 1.31588 0.168749 1.6226 0.41665 1.78942V5.28848C0.41665 5.55385 0.602881 5.76923 0.8333 5.76923C1.06328 5.76923 1.24995 5.55385 1.24995 5.28848V1.78942C1.49746 1.6226 1.6666 1.31588 1.6666 0.961558C1.6667 0.431228 1.29253 0 0.83335 0Z" transform="translate(10.6666 10.5769)" fill="#2D918E"/>
<path d="M0.41665 0C0.186231 0 0 0.215388 0 0.48075V8.17305C0 8.43841 0.186231 8.6538 0.41665 8.6538C0.646631 8.6538 0.833301 8.43841 0.833301 8.17305V0.48075C0.83335 0.215388 0.64668 0 0.41665 0Z" transform="translate(6.5 16.3462)" fill="#2D918E"/>
<path d="M5.82417 0.382719C5.78252 0.149076 5.58623 0.000507062 5.38833 0C3.19956 0 1.52539 0.540865 0.67168 1.52355C0.22627 2.03704 0 2.65486 0 3.35917V12.9746C0 13.2399 0.18623 13.4553 0.41665 13.4553C0.646631 13.4553 0.833301 13.2399 0.833301 12.9746V3.35917C0.833301 2.91301 0.973291 2.53514 1.2604 2.20386C1.90957 1.45628 3.29038 1.01153 5.07832 0.965389L7.09209 12.1111C7.13877 12.3707 7.3604 12.5375 7.58501 12.4836C7.81045 12.4293 7.95503 12.1745 7.90752 11.9149L5.82417 0.382719Z" transform="translate(4 10.583)" fill="#2D918E"/>
</g>
<defs>
<filter id="filter0_d" x="0" y="0" width="33" height="33" filterUnits="userSpaceOnUse" color-interpolation-filters="sRGB">
<feFlood flood-opacity="0" result="BackgroundImageFix"/>
<feColorMatrix in="SourceAlpha" type="matrix" values="0 0 0 0 0 0 0 0 0 0 0 0 0 0 0 0 0 0 255 0"/>
<feOffset dy="4"/>
<feGaussianBlur stdDeviation="2"/>
<feColorMatrix type="matrix" values="0 0 0 0 0 0 0 0 0 0 0 0 0 0 0 0 0 0 0.25 0"/>
<feBlend mode="normal" in2="BackgroundImageFix" result="effect1_dropShadow"/>
<feBlend mode="normal" in="SourceGraphic" in2="effect1_dropShadow" result="shape"/>
</filter>
</defs>
</svg>
