<svg width="25" height="28" viewBox="0 0 25 28" fill="none" xmlns="http://www.w3.org/2000/svg">
<path d="M2.27272 5.19122C3.5279 5.19122 4.54545 4.02911 4.54545 2.59561C4.54545 1.16211 3.5279 0 2.27272 0C1.01755 0 0 1.16211 0 2.59561C0 4.02911 1.01749 5.19122 2.27272 5.19122ZM2.27272 1.29781C2.90034 1.29781 3.40908 1.87883 3.40908 2.59561C3.40908 3.31239 2.90034 3.89342 2.27272 3.89342C1.64511 3.89342 1.13636 3.31239 1.13636 2.59561C1.13636 1.87883 1.64511 1.29781 2.27272 1.29781Z" transform="translate(10.2271)" fill="#2D918E"/>
<path d="M4.8028 0.000582429C4.79274 0.000768734 4.78273 0.00107927 4.77273 0.00138978H3.18184C1.4723 -0.0527009 0.0480688 1.48625 0.00070692 3.43867C0.000435038 3.45009 0.000217506 3.46158 0 3.47301V3.99212C0 4.34902 0.312501 4.54371 0.625003 4.54371H7.32951C7.64201 4.54371 7.95451 4.34902 7.95451 3.99212V3.47301C7.92373 1.52015 6.51266 -0.0345051 4.8028 0.000582429ZM1.19318 3.24584C1.25 2.27252 2.13069 1.29913 3.18178 1.29913H4.77267C5.82382 1.29913 6.7045 2.27246 6.76127 3.24584H1.19318Z" transform="translate(8.52246 5.61169)" fill="#2D918E"/>
<path d="M0.568187 9.48451C0.881992 9.48451 1.13636 9.194 1.13636 8.83561C1.13457 5.83387 2.32584 2.99346 4.37496 1.11371C4.59975 0.863625 4.60443 0.452823 4.38545 0.196095C4.19497 -0.0272221 3.89232 -0.0642346 3.66475 0.107911C1.34468 2.22936 -0.00401486 5.44126 8.97835e-06 8.83561C8.97835e-06 9.194 0.254381 9.48451 0.568187 9.48451Z" transform="translate(2.69922 6.99744)" fill="#2D918E"/>
<path d="M6.24321 0.0374201C6.23875 0.039221 6.23429 0.0410838 6.22988 0.043009C4.45075 0.72314 2.52611 0.72314 0.746973 0.043009C0.448992 -0.0630597 0.13187 0.125292 0.0367658 0.464799C-0.0711709 0.782136 0.066619 1.13934 0.344481 1.26261C0.355411 1.26746 0.366448 1.27193 0.37765 1.2759C2.39544 2.05471 4.58142 2.05471 6.59915 1.2759C6.90029 1.15319 7.0632 0.781143 6.96848 0.432322C6.86375 0.0946157 6.53901 -0.0822487 6.24321 0.0374201Z" transform="translate(9.02637 25.1666)" fill="#2D918E"/>
<path d="M0.244737 1.18796C2.54589 3.03817 3.9134 6.05279 3.90949 9.26682C3.90949 9.62522 4.16386 9.91573 4.47767 9.91573C4.79147 9.91573 5.04585 9.62522 5.04585 9.26682C5.03796 5.63099 3.49318 2.22333 0.898123 0.117256C0.639237 -0.0887991 0.283126 -0.0162018 0.102651 0.279466C-0.0777703 0.575135 -0.0141495 0.981904 0.244737 1.18796Z" transform="translate(17.2549 6.56641)" fill="#2D918E"/>
<path d="M2.2727 5.19126C3.52786 5.19126 4.5454 4.02914 4.5454 2.59563C4.5454 1.16212 3.52786 0 2.2727 0C1.01754 0 0 1.16206 0 2.59563C0 4.0292 1.01754 5.19126 2.2727 5.19126ZM2.2727 1.29782C2.90031 1.29782 3.40905 1.87885 3.40905 2.59563C3.40905 3.31242 2.90031 3.89345 2.2727 3.89345C1.64509 3.89345 1.13635 3.31242 1.13635 2.59563C1.13635 1.87885 1.64509 1.29782 2.2727 1.29782Z" transform="translate(1.70459 17.8447)" fill="#2D918E"/>
<path d="M4.80285 0.000582434C4.79279 0.000768742 4.78279 0.00107928 4.77278 0.0013898H3.18184C1.4723 -0.0527015 0.0480688 1.48626 0.000706893 3.4387C0.000435011 3.45013 0.000217506 3.46162 0 3.47304V3.99216C0 4.34906 0.312501 4.54375 0.625003 4.54375H7.32951C7.64201 4.54375 7.95451 4.34906 7.95451 3.99216V3.47304C7.92384 1.52017 6.51277 -0.0345055 4.80285 0.000582434ZM1.19324 3.24587C1.25006 2.27254 2.13074 1.29915 3.18184 1.29915H4.77273C5.82388 1.29915 6.70456 2.27248 6.76133 3.24587H1.19324Z" transform="translate(0 23.4563)" fill="#2D918E"/>
<path d="M0 2.59563C0 4.02914 1.01754 5.19126 2.2727 5.19126C3.52786 5.19126 4.5454 4.02914 4.5454 2.59563C4.5454 1.16212 3.52786 0 2.2727 0C1.01754 0 0 1.16206 0 2.59563ZM3.40905 2.59563C3.40905 3.31242 2.90031 3.89345 2.2727 3.89345C1.64509 3.89345 1.13635 3.31242 1.13635 2.59563C1.13635 1.87885 1.64509 1.29782 2.2727 1.29782C2.90031 1.29782 3.40905 1.87885 3.40905 2.59563Z" transform="translate(18.75 17.8447)" fill="#2D918E"/>
<path d="M4.8028 0.000582434C4.79274 0.000768742 4.78273 0.00107928 4.77273 0.0013898H3.18184C1.4723 -0.0527015 0.0480688 1.48626 0.00070692 3.4387C0.000435038 3.45013 0.000217506 3.46162 0 3.47304V3.99216C0 4.34906 0.312502 4.54375 0.625004 4.54375H7.32951C7.64201 4.54375 7.95451 4.34906 7.95451 3.99216V3.47304C7.92379 1.52017 6.51272 -0.0345055 4.8028 0.000582434ZM1.19318 3.24587C1.25 2.27254 2.13069 1.29915 3.18178 1.29915H4.77267C5.82382 1.29915 6.7045 2.27248 6.76127 3.24587H1.19318Z" transform="translate(17.0454 23.4563)" fill="#2D918E"/>
</svg>

